# xmcd
#
# Track frame offsets:
#	150
#	16029
#	34520
#	50808
#	68157
#	81939
#	101200
#	116146
#	135785
#	150371
#	167273
#
# Disc length: 2434 seconds
#
# Revision: 0
# Processed by: cddbd v1.5.2PL0 Copyright (c) Steve Scherf et al.
# Submitted via: dBpowerAMP V4.0
#
DISCID=7d09800b
DTITLE=Blake Shelton  - Pure B S
DYEAR=2007
DGENRE=Country
TTITLE0=This Can't Be Good (Album Version)
TTITLE1=Don't Make Me (Album Version)
TTITLE2=The More I Drink (Album Version)
TTITLE3=I Don't Care (Album Version)
TTITLE4=She Don't Love Me (Album Version)
TTITLE5=Back There Again (Album Version)
TTITLE6=It Ain't Easy Bein' Me (Album Version)
TTITLE7=What I Wouldn't Give (Album Version)
TTITLE8=I Have Been Lonely (Album Version)
TTITLE9=She Can't Get That (Album Version)
TTITLE10=The Last Country Song (Featuring George Jones and John Anderson)
EXTD=
EXTT0=
EXTT1=
EXTT2=
EXTT3=
EXTT4=
EXTT5=
EXTT6=
EXTT7=
EXTT8=
EXTT9=
EXTT10=
PLAYORDER=
